<?xml version="1.0" encoding="UTF-8"?><svg id="Layer_2" xmlns="http://www.w3.org/2000/svg" viewBox="0 0 267.23 102.24"><defs><style>.cls-1{fill:#fff;}.cls-2{font-family:KsoShinryuSou-90ms-RKSJ-H, KsoShinryuSou;font-size:24px;stroke:#000;stroke-width:2px;}.cls-2,.cls-3{stroke-miterlimit:10;}.cls-4{fill:#b91c1c;}.cls-5,.cls-3{fill:#fbbf24;}.cls-3{stroke:#d89500;stroke-linecap:round;stroke-width:.75px;}</style></defs><g id="Layer_3"><g><g><path d="M35.8,80.65c-7.24-.18-14.56-1.74-20.79-5.45-6.22-3.71-11.25-9.71-12.86-16.78-.86-3.79-.74-7.74-.43-11.61C2.98,31.12,7.18,15.67,14.06,1.5c7.01,8.99,12.44,16.44,17.2,26.79,0,0,6.03-2.11,10.64-2.11h.59c4.61,0,10.64,2.11,10.64,2.11,4.76-10.35,10.19-17.8,17.2-26.79,6.87,14.16,11.08,29.62,12.33,45.31,.31,3.88,.44,7.82-.43,11.61-1.61,7.06-6.63,13.07-12.86,16.78-6.22,3.71-13.55,5.26-20.79,5.45"/><path d="M35.8,79.15c-12.06-.35-24.98-4.98-30.58-16.49-2.89-5.94-2.37-12.67-1.7-19.05,.71-6.71,1.99-13.35,3.77-19.86,2.03-7.4,4.73-14.6,8.06-21.5l-2.36,.3c6.48,8.32,12.52,16.87,16.96,26.48,.26,.56,1.12,.89,1.69,.69,3.36-1.17,6.97-2.06,10.54-2.06s7.18,.89,10.54,2.06c.57,.2,1.43-.12,1.69-.69,4.44-9.61,10.48-18.16,16.96-26.48l-2.36-.3c5.93,12.27,9.89,25.55,11.57,39.08,.8,6.44,1.64,13.38-.69,19.6-1.96,5.22-5.96,9.63-10.64,12.57-6.17,3.88-13.47,5.43-20.68,5.64-1.93,.06-1.93,3.06,0,3,12.84-.38,26.52-5.31,32.83-17.3,3.27-6.22,3.23-13.04,2.59-19.87-.69-7.28-1.98-14.51-3.89-21.58-2.11-7.8-4.97-15.39-8.48-22.66-.39-.8-1.78-1.04-2.36-.3-6.64,8.53-12.88,17.24-17.43,27.09l1.69-.69c-3.6-1.25-7.51-2.17-11.34-2.17s-7.73,.91-11.34,2.17l1.69,.69C28,17.68,21.76,8.97,15.12,.44c-.57-.73-1.97-.5-2.36,.3C6.45,13.81,2.36,27.84,.68,42.25c-.8,6.85-1.41,14.03,1.33,20.54,2.38,5.64,6.73,10.33,11.92,13.51,6.55,4.01,14.27,5.63,21.87,5.85,1.93,.06,1.93-2.94,0-3h0Z"/></g><path class="cls-4" d="M50.92,98.81c2.83-7.32-1.93-14.47-6.44-19.89l-2.73,3.53c4.48,2.63,9.38,4.93,14.61,5.48,2.77,.29,6.14-.1,8.14-2.27,1.75-1.89,1.93-4.66,.52-6.81-1.73-2.63-4.84-3.76-7.83-4.12-5.31-.64-10.69,1.15-15.46,3.32l1.14-.31-1.33,.13,1.14,.31c-4.43-2.01-9.31-3.67-14.24-3.43-2.96,.14-6.28,.98-8.33,3.29-1.68,1.9-2.3,4.62-.88,6.87,1.59,2.52,4.81,3.29,7.61,3.23,5.62-.14,11.07-2.78,15.82-5.56l-2.73-3.53c-4.52,5.42-9.28,12.56-6.44,19.89,.44,1.13,1.51,1.92,2.77,1.57,1.08-.3,2.01-1.63,1.57-2.77-2.21-5.71,1.73-11.24,5.29-15.51,.72-.86,.91-2.03,.18-2.95-.69-.87-1.91-1.16-2.9-.58-1.26,.74-2.54,1.44-3.85,2.08-.59,.29-1.18,.56-1.78,.82-.04,.02-.4,.17-.1,.05-.14,.06-.28,.12-.42,.17-.27,.11-.54,.22-.82,.32-.99,.37-2,.7-3.03,.96-.45,.12-.91,.22-1.37,.31-.21,.04-.43,.08-.65,.11-.08,.01-.16,.02-.24,.04-.29,.06,.49-.04,.06,0-.74,.06-1.47,.12-2.22,.09-.16,0-.33-.02-.49-.03-.33-.02-.5,.11,.02,.01-.23,.05-.63-.11-.85-.17-.26-.07-.5-.17-.76-.24-.32-.09,.54,.29,.11,.05-.1-.06-.21-.1-.31-.16s-.19-.12-.29-.18c-.41-.24,.14-.02,.13,.12,0-.05-.41-.39-.47-.44-.32-.3,.19,.16,.15,.2,0,0-.15-.21-.16-.23-.04-.08-.08-.17-.13-.24-.23-.32,.13,.49,.08,.2-.01-.06-.08-.46-.12-.48,.25,.17,.03,.68,.04,.27,0-.1,0-.2,0-.3-.02-.6-.19,.55,0,.02,.05-.15,.26-.78,.09-.34s.08-.13,.16-.26c.05-.09,.13-.17,.17-.26,.12-.24-.44,.48-.08,.11,.15-.15,.29-.31,.45-.46,.09-.08,.19-.15,.27-.23,.2-.2-.53,.34-.05,.04,.21-.13,.41-.27,.63-.39,.12-.07,.24-.13,.37-.19,.1-.05,.62-.25,.22-.11-.42,.15,.13-.04,.2-.07,.13-.05,.26-.09,.39-.13,.33-.1,.67-.19,1.02-.26,.17-.04,.34-.07,.51-.1,.3-.05,.41-.05,0,0,.41-.04,.81-.08,1.22-.1,.86-.04,1.72,0,2.57,.07,.23,.02,.47,.05,.7,.08,.33,.04-.4-.06-.06,0,.09,.02,.18,.03,.27,.04,.54,.09,1.08,.19,1.61,.31,2.31,.52,4.71,1.4,6.67,2.27,1.18,.52,2.67,.39,3.84-.13,1.04-.46,2.13-.91,3.36-1.33,1.12-.38,2.25-.71,3.41-.96,.47-.1,.95-.2,1.42-.27,.18-.03,.69-.1,.22-.04,.29-.04,.58-.07,.87-.1,.85-.08,1.71-.1,2.56-.06,.36,.02,.72,.09,1.08,.09,.3,0-.47-.09-.19-.03,.07,.02,.13,.02,.2,.03,.21,.04,.43,.08,.64,.12,.3,.07,.6,.14,.9,.23,.25,.08,1.2,.51,.48,.14,.49,.25,.96,.49,1.43,.79,.36,.23-.15-.14-.12-.1,.07,.09,.19,.16,.27,.23,.18,.16,.34,.34,.51,.52,.31,.32-.21-.35-.1-.14,.04,.08,.11,.15,.15,.23,.05,.09,.1,.18,.15,.26,.25,.4-.17,.08-.06-.17-.02,.05,.14,.43,.16,.51,.03,.11,.08,.51,.02,0s0-.08-.01,.04c0,.15-.05,.74,.01,.23s-.09,.14-.1,.28c-.02,.26,.32-.57,.09-.23-.04,.06-.08,.14-.12,.21-.04,.07-.13,.16-.15,.23,.05-.17,.4-.43,.1-.15-.13,.12-.31,.25-.41,.39,.01-.02,.52-.34,.13-.11-.11,.06-.21,.14-.32,.2-.1,.06-.21,.11-.31,.16-.38,.21,.22-.08,.16-.06-.27,.05-.53,.19-.8,.26-.11,.03-.78,.24-.85,.17,.05,.05,.64-.06,.08-.02-.18,.01-.37,.03-.55,.04-.74,.03-1.48-.03-2.22-.09-.33-.03,.45,.08-.18-.03-.22-.04-.43-.07-.65-.11-.46-.09-.91-.19-1.37-.31-1.03-.26-2.04-.59-3.03-.96-.27-.1-.55-.21-.82-.32-.14-.06-.28-.11-.42-.17,.09,.04,.32,.14-.1-.05-.6-.26-1.19-.54-1.78-.82-1.31-.64-2.59-1.34-3.85-2.08-.96-.56-2.24-.31-2.9,.58-.71,.95-.56,2.07,.18,2.95,3.56,4.27,7.5,9.8,5.29,15.51-.44,1.13,.48,2.47,1.57,2.77,1.27,.35,2.33-.43,2.77-1.57h0Z"/><g><g><ellipse class="cls-5" cx="22.9" cy="51.32" rx="8.49" ry="10.46" transform="translate(-31.5 65.42) rotate(-80.49)"/><ellipse cx="23.84" cy="51.7" rx="3.8" ry="9"/></g><g><ellipse class="cls-5" cx="61.49" cy="51.32" rx="10.46" ry="8.49" transform="translate(-7.63 10.87) rotate(-9.51)"/><ellipse cx="60.54" cy="51.7" rx="3.8" ry="9"/></g></g><g><path class="cls-1" d="M51.67,65.28c-.92,1.93-2.68,2.86-4.71,2.95-2.2,.13-3.87-.6-4.77-2.72,0,0,0,0,0,0,0,0,0,0,0,0,0,0,0,0,0,0,0,0,0,0,0,0-1.05,2.1-2.48,2.8-4.77,2.71-2.02-.07-3.8-1.01-4.71-2.94-.16,1.16,.46,2.34,1.35,3.09,1.88,1.51,4.72,1.49,6.66,.13,.65-.5,1.3-1.24,1.48-2.06,.19,.81,.81,1.53,1.46,2.02,1.93,1.37,4.76,1.42,6.65-.1,.89-.74,1.51-1.93,1.35-3.09Z"/><path class="cls-1" d="M41.72,64.22c.32,.18,.69,.17,1.01,0,1.02-.57,3.25-1.72,3.25-3.02s-3.75,0-3.75,0h0s-3.8-1.27-3.8,0c0,1.34,2.27,2.45,3.3,3.02Z"/></g><path class="cls-3" d="M42.19,74.68c-2.9,0-5.25,2.35-5.25,5.25s2.35,5.25,5.25,5.25,5.25-2.35,5.25-5.25-2.35-5.25-5.25-5.25Zm1.31,6.56h-2.62v-2.62h2.62v2.62Z"/><g><path class="cls-5" d="M33.28,98.38c.11,.39,.27,.76,.44,1.13,.09,.21,.2,.41,.33,.61,.22,.34,.47,.66,.74,.97,.15,.18,.32,.34,.5,.49,.2,.22,.45,.37,.72,.47,.27,.14,.56,.21,.87,.19,.31,.01,.6-.05,.87-.19,.28-.09,.52-.25,.72-.47l.35-.46c.2-.35,.31-.73,.31-1.14l-.08-.6c-.11-.38-.3-.71-.58-.99-.25-.21-.47-.44-.67-.7l.35,.46c-.23-.3-.42-.63-.57-.98l.23,.54c-.07-.17-.13-.35-.18-.53-.07-.29-.2-.55-.4-.77-.16-.24-.37-.44-.63-.58-.26-.16-.54-.25-.84-.27-.3-.07-.6-.05-.9,.04l-.54,.23c-.34,.2-.61,.47-.81,.81l-.23,.54c-.11,.4-.11,.8,0,1.2h0Z"/><path class="cls-5" d="M46.77,97.19c-.05,.18-.11,.36-.18,.53l.23-.54c-.15,.35-.34,.67-.57,.98l.35-.46c-.2,.26-.42,.49-.67,.7-.22,.2-.37,.45-.47,.72-.14,.27-.21,.56-.19,.87-.01,.31,.05,.6,.19,.87,.09,.28,.25,.52,.47,.72l.46,.35c.35,.2,.73,.31,1.14,.31l.6-.08c.38-.11,.71-.3,.99-.58,.17-.15,.34-.31,.49-.48,.27-.31,.53-.64,.75-.98,.12-.19,.23-.39,.32-.59,.17-.37,.34-.75,.44-1.15,.09-.3,.11-.6,.04-.9-.01-.3-.1-.58-.27-.84-.14-.26-.33-.47-.58-.63-.22-.2-.47-.33-.77-.4l-.6-.08c-.41,0-.78,.1-1.14,.31-.49,.32-.88,.77-1.03,1.34h0Z"/></g></g><text class="cls-2" transform="translate(98.3 59.31) scale(1.55 1)"><tspan x="0" y="0">CHENGYU4U</tspan></text></g></svg>